<svg xmlns="http://www.w3.org/2000/svg" viewBox="0 0 32 32" fill="none">
  <title>Hatchkit hatching egg sprout favicon option 04</title>
  <rect width="32" height="32" rx="7" fill="#11141c"/>
  <path d="M15.9 7C18 4.8 20.9 4.5 23.7 6.5C23 10.1 20.6 12.4 16.5 13.2" fill="#34d399"/>
  <path d="M16 12.7C13.7 10.6 11.1 10.2 8.4 12C9 15.2 11.5 17.1 15.7 17.4" fill="#a5b4fc"/>
  <path d="M7.7 18.7L10.4 16.2L13.1 19.3L16 16L18.9 19.3L21.6 16.2L24.3 18.7V22C24.3 25.7 20.8 28.3 16 28.3C11.2 28.3 7.7 25.7 7.7 22V18.7Z" fill="#ffffff"/>
  <path d="M10.4 16.2L13.1 19.3L16 16L18.9 19.3L21.6 16.2" stroke="#0b0d12" stroke-width="2.1" stroke-linecap="round" stroke-linejoin="round"/>
  <path d="M16 9.2V17.1" stroke="#0b0d12" stroke-width="1.75" stroke-linecap="round"/>
</svg>
