<svg xmlns="http://www.w3.org/2000/svg" viewBox="0 0 32 32" fill="none">
  <title>Hatchkit hatching egg crack favicon option 03</title>
  <rect width="32" height="32" rx="7" fill="#818cf8"/>
  <path d="M16 4.3C20.8 4.3 24.2 9.8 24.2 17.2C24.2 24 21 28.6 16 28.6C11 28.6 7.8 24 7.8 17.2C7.8 9.8 11.2 4.3 16 4.3Z" fill="#0b0d12"/>
  <path d="M16 7.2C19 7.2 21.3 11.2 21.3 17.1C21.3 22.4 19.4 25.7 16 25.7C12.6 25.7 10.7 22.4 10.7 17.1C10.7 11.2 13 7.2 16 7.2Z" fill="#ffffff"/>
  <path d="M12.2 14.2L15.1 11.5L17.2 14.8L19.9 12.1" stroke="#818cf8" stroke-width="2.2" stroke-linecap="round" stroke-linejoin="round"/>
  <path d="M14.2 18.2L18.1 22.1" stroke="#0b0d12" stroke-width="2.2" stroke-linecap="round"/>
</svg>
