<svg xmlns="http://www.w3.org/2000/svg" viewBox="0 0 32 32" fill="none">
  <title>Hatchkit hatching egg tile favicon option 06</title>
  <rect width="32" height="32" rx="7" fill="#818cf8"/>
  <path d="M8.1 18.4L10.7 16.1L13.1 19.2L15.9 16L18.7 19.2L21.1 16.1L23.9 18.4V21.8C23.9 25.8 20.8 28.2 16 28.2C11.2 28.2 8.1 25.8 8.1 21.8V18.4Z" fill="#0b0d12"/>
  <path d="M9.4 14.7C10.4 8.9 12.9 4.8 15.9 4.8C19 4.8 21.5 8.9 22.6 14.7L21.1 16.1L18.7 13.3L15.9 16.4L13.1 13.3L10.7 16.1L9.4 14.7Z" fill="#ffffff"/>
  <path d="M10.8 9.6L22.1 20.9" stroke="#0b0d12" stroke-width="2.25" stroke-linecap="round"/>
  <path d="M8.7 13.7L20.4 25.4" stroke="#0b0d12" stroke-width="2.25" stroke-linecap="round" stroke-opacity="0.6"/>
</svg>
