<svg xmlns="http://www.w3.org/2000/svg" viewBox="0 0 32 32" fill="none">
  <title>Hatchkit hatching egg shell favicon option 02</title>
  <rect width="32" height="32" rx="7" fill="#0b0d12"/>
  <path d="M7.6 18.8L10.4 16.3L13.1 19.6L16 16.1L18.9 19.6L21.6 16.3L24.4 18.8V22.1C24.4 25.9 20.9 28.5 16 28.5C11.1 28.5 7.6 25.9 7.6 22.1V18.8Z" fill="#818cf8"/>
  <path d="M9.1 14.5C10.3 8.7 12.9 4.5 16 4.5C19.1 4.5 21.7 8.7 22.9 14.5L21.6 16.3L18.9 13.2L16 16.6L13.1 13.2L10.4 16.3L9.1 14.5Z" fill="#ffffff"/>
  <path d="M10.4 16.3L13.1 13.2L16 16.6L18.9 13.2L21.6 16.3" stroke="#0b0d12" stroke-width="2.2" stroke-linecap="round" stroke-linejoin="round"/>
</svg>
